<svg width="20" height="21" viewBox="0 0 20 21" fill="none" xmlns="http://www.w3.org/2000/svg">
<g clip-path="url(#clip0_501_249)">
<path d="M10 0C4.4772 0 0 4.70106 0 10.5C0 15.4241 3.2288 19.556 7.5844 20.6909V13.7088H5.5224V10.5H7.5844V9.11736C7.5844 5.54358 9.1248 3.8871 12.4664 3.8871C13.1 3.8871 14.1932 4.01772 14.6404 4.14792V7.05642C14.4044 7.03038 13.9944 7.01736 13.4852 7.01736C11.8456 7.01736 11.212 7.66962 11.212 9.36516V10.5H14.4784L13.9172 13.7088H11.212V20.9231C16.1636 20.2952 20.0004 15.8684 20.0004 10.5C20 4.70106 15.5228 0 10 0Z" fill="white"/>
</g>
<defs>
<clipPath id="clip0_501_249">
<rect width="20" height="21" fill="white"/>
</clipPath>
</defs>
</svg>
