<svg width="21" height="30" viewBox="0 0 21 30" fill="none" xmlns="http://www.w3.org/2000/svg">
<path d="M20.642 12.0323C21.0324 9.03895 18.832 7.47625 15.8152 6.41977L16.7522 2.36995L14.3672 1.77568L13.4586 5.73746C12.8269 5.5834 12.188 5.42933 11.5563 5.29727L12.4649 1.33548L10.0515 0.741211L9.11451 4.79104C8.60344 4.66631 8.08526 4.57094 7.57419 4.44622L4.28771 3.63185L3.68436 6.25103C3.68436 6.25103 5.46602 6.65454 5.40213 6.69123C6.36749 6.94067 6.55205 7.59363 6.51655 8.09252L5.45892 12.7073C5.5228 12.7366 5.60798 12.7366 5.70026 12.8026C5.60798 12.7733 5.5512 12.7733 5.45892 12.744L4.01088 19.2002C3.89021 19.5083 3.58499 19.9485 2.92485 19.7945C2.95324 19.8238 1.17159 19.3543 1.17159 19.3543L0.0429688 22.1936L3.15199 22.9419C3.72695 23.096 4.30191 23.2207 4.84137 23.3821L3.90441 27.4686L6.28941 28.0629L7.22638 24.013C7.89361 24.1965 8.52536 24.3579 9.12871 24.5119L8.19174 28.5324L10.5767 29.1267L11.5137 25.0402C15.5881 25.7885 18.6332 25.4437 19.8683 21.6066C20.8621 18.5472 19.7761 16.8011 17.604 15.6493C19.194 15.2751 20.3439 14.2113 20.642 12.0323ZM15.2758 19.9779C14.5801 23.0373 9.57589 21.4452 7.97169 21.0417L9.20678 15.6126C10.8394 16.0234 15.9998 16.7718 15.2758 19.9779ZM15.9359 12.0323C15.3042 14.8056 11.1375 13.4703 9.78174 13.1255L10.9317 8.20257C12.259 8.54006 16.6031 9.13433 15.9359 12.0323Z" fill="white"/>
</svg>
