<svg width="34" height="34" viewBox="0 0 34 34" fill="none" xmlns="http://www.w3.org/2000/svg">
<path d="M8.653 28.333H5.66667C5.29094 28.333 4.93061 28.4823 4.66493 28.7479C4.39926 29.0136 4.25 29.374 4.25 29.7497C4.25 30.1254 4.39926 30.4857 4.66493 30.7514C4.93061 31.0171 5.29094 31.1663 5.66667 31.1663H28.3333C28.7091 31.1663 29.0694 31.0171 29.3351 30.7514C29.6007 30.4857 29.75 30.1254 29.75 29.7497C29.75 29.374 29.6007 29.0136 29.3351 28.7479C29.0694 28.4823 28.7091 28.333 28.3333 28.333H25.347C24.9971 24.4032 23.8298 17.5522 19.9268 15.583C23.5592 13.5671 24.8186 8.76884 25.2592 5.66634H28.3333C28.7091 5.66634 29.0694 5.51709 29.3351 5.25141C29.6007 4.98573 29.75 4.6254 29.75 4.24967C29.75 3.87395 29.6007 3.51362 29.3351 3.24794C29.0694 2.98226 28.7091 2.83301 28.3333 2.83301H5.66667C5.29094 2.83301 4.93061 2.98226 4.66493 3.24794C4.39926 3.51362 4.25 3.87395 4.25 4.24967C4.25 4.6254 4.39926 4.98573 4.66493 5.25141C4.93061 5.51709 5.29094 5.66634 5.66667 5.66634H8.74083C9.18142 8.76884 10.4408 13.5671 14.0732 15.583C10.1702 17.5522 9.00292 24.4032 8.653 28.333ZM12.75 23.5163C12.75 21.8163 17 18.4163 17 18.4163C17 18.4163 21.25 21.8163 21.25 23.5163V28.333H12.75V23.5163Z" fill="#00FF75"/>
</svg>
