<svg width="28" height="33" viewBox="0 0 28 33" fill="none" xmlns="http://www.w3.org/2000/svg">
<path d="M3.90955 30.3807C5.36874 31.5962 7.09684 32.4506 8.9522 32.8738C9.12975 32.9315 9.24922 32.7005 9.12975 32.585C5.15569 28.8148 7.33935 24.7344 8.9522 22.8947C10.1021 21.5813 11.7399 19.4181 11.6204 16.5175C11.6204 16.2271 11.9191 15.9944 12.1547 16.1693C14.4097 17.3293 15.9512 19.8818 16.366 21.969C17.0198 21.3321 17.2571 20.3454 17.2571 19.4759C17.2571 19.1855 17.6122 18.9529 17.9092 19.1855C20.0447 21.0995 23.7218 27.5955 17.7897 32.6989C17.6719 32.816 17.7897 33.0487 17.9092 32.9909C19.7079 32.522 21.3994 31.7144 22.8921 30.6117C32.5609 23.1867 26.2721 10.0198 22.1786 5.67046C21.646 5.14741 20.6968 5.49556 20.6968 6.2496C20.6371 7.81709 20.1625 9.55618 18.918 10.7161C17.9689 6.77265 14.8063 2.29294 10.2979 0.0885546C9.70553 -0.201843 8.99369 0.261803 9.05342 0.900348C9.16957 6.2958 5.63026 9.73108 2.54559 14.1976C-0.183979 18.1988 -1.96276 25.566 3.90955 30.3807Z" fill="#FFB830"/>
</svg>
