<svg width="20" height="16" viewBox="0 0 20 16" fill="none" xmlns="http://www.w3.org/2000/svg">
<path fill-rule="evenodd" clip-rule="evenodd" d="M18.1818 1.77777C19.186 1.77777 20 2.57371 20 3.55555V14.2222C20 15.204 19.186 16 18.1818 16H1.81818C0.814022 16 0 15.204 0 14.2222V1.77777C0 0.795932 0.814022 0 1.81818 0H7.27272C8.29089 0 8.939 0.422627 9.59 1.22564C9.60789 1.24779 9.65156 1.30281 9.7 1.36382C9.76855 1.45022 9.84711 1.54919 9.875 1.58294C9.90322 1.61711 9.92689 1.64537 9.94655 1.66872C10.0266 1.7638 10.0381 1.77759 10.0017 1.77777H18.1818ZM10.8333 11.9506H9.16667V9.50616H6.66667V7.87653H9.16667V5.43209H10.8333V7.87653H13.3333V9.50616H10.8333V11.9506Z" fill="white"/>
</svg>
