<svg width="18" height="18" viewBox="0 0 18 18" fill="none" xmlns="http://www.w3.org/2000/svg">
<path fill-rule="evenodd" clip-rule="evenodd" d="M11.1329 0.684665L16.5296 4.57164C17.4539 5.23741 18 6.29559 18 7.42106V14.4659C18 16.4177 16.3882 18 14.4 18H3.6C1.61177 18 0 16.4177 0 14.4659V7.42208C0 6.29604 0.546619 5.23739 1.47176 4.5717L6.8751 0.683697C8.14248 -0.228256 9.86597 -0.227864 11.1329 0.684665ZM9 8.57578C7.67452 8.57578 6.6 9.63062 6.6 10.9318V12.6989C6.6 13.0242 6.86863 13.2879 7.2 13.2879H10.8C11.1314 13.2879 11.4 13.0242 11.4 12.6989V10.9318C11.4 9.63062 10.3255 8.57578 9 8.57578Z" fill="white"/>
</svg>
