<svg width="54" height="36" viewBox="0 0 54 36" fill="none" xmlns="http://www.w3.org/2000/svg">
<path fill-rule="evenodd" clip-rule="evenodd" d="M21.7282 34.6111C24.7595 33.953 27.5632 32.5327 29.8627 30.4905C31.982 28.6175 33.6122 26.275 34.6169 23.6588C35.6217 21.0427 35.9716 18.229 35.6376 15.4534C35.3035 12.6777 34.2952 10.0207 32.6969 7.70467C31.0986 5.38866 28.9569 3.48103 26.4509 2.14139C23.945 0.801749 21.1477 0.0690674 18.2931 0.00464978C15.4386 -0.0597678 12.6097 0.545955 10.0434 1.77113C7.47702 2.99631 5.24776 4.8053 3.54214 7.04675C1.83652 9.28819 0.704141 11.8969 0.239766 14.6546H3.51118C4.22481 11.2215 6.19683 8.16249 9.05548 6.05428C11.9141 3.94607 15.4619 2.93427 19.0301 3.20961C20.816 3.34743 22.5452 3.80292 24.1388 4.53962L24.1373 4.54093C25.1576 5.01369 26.1183 5.60094 27 6.29085V6.2877L27.0041 6.28454C27.5033 6.67325 27.9785 7.09532 28.426 7.54905C30.9118 10.0697 32.3698 13.3933 32.525 16.8935C32.6802 20.3936 31.522 23.8284 29.2687 26.5504C27.0154 29.2724 23.8226 31.0936 20.2922 31.6705C16.7619 32.2475 13.1379 31.5404 10.1033 29.6826C7.06881 27.8248 4.83341 24.9446 3.81853 21.5849H0.482748C1.20067 24.5418 2.69366 27.2645 4.81447 29.4843C6.93528 31.7041 9.61063 33.3444 12.5767 34.2435C15.5427 35.1425 18.6969 35.2692 21.7282 34.6111ZM48.0827 9.2124C49.2647 10.8424 50.0859 12.696 50.4937 14.6546H53.7651C53.0676 10.567 50.913 6.85367 47.6837 4.17369C44.4543 1.49372 40.3593 0.0205414 36.1255 0.0157057C33.671 0.0122892 31.2424 0.507881 28.9937 1.47109C30.0209 2.15284 30.9799 2.92807 31.858 3.78646C33.8118 3.20515 35.8681 3.02963 37.8952 3.27114C39.9223 3.51264 41.8755 4.16585 43.6298 5.18894C45.3841 6.21202 46.9008 7.58243 48.0827 9.2124ZM28.9889 33.5619C31.2379 34.5239 33.6663 35.0189 36.1207 35.0157C40.1398 35.013 44.0411 33.6868 47.1969 31.2507C50.3527 28.8145 52.5795 25.41 53.5189 21.5849H50.1895C49.6403 23.401 48.7293 25.0928 47.5091 26.5628C46.2889 28.0327 44.7836 29.2518 43.0799 30.1497C41.3762 31.0477 39.5078 31.6067 37.5824 31.7947C35.657 31.9827 33.7126 31.7958 31.8613 31.2449C30.9802 32.1038 30.0185 32.8795 28.9889 33.5619ZM22.6891 29.0524C23.7099 28.6436 24.6722 28.1068 25.5518 27.4553L25.5534 27.4521C22.9298 24.782 21.4643 21.2212 21.4643 17.5165C21.4643 13.8118 22.9298 10.251 25.5534 7.58085C24.6742 6.92713 23.7112 6.38911 22.6891 5.98056C19.8231 9.16871 18.2422 13.2698 18.2422 17.5165C18.2422 21.7631 19.8231 25.8643 22.6891 29.0524ZM11.8402 19.6948V16.5447H0.0273576C0.00912049 16.866 1.94772e-06 17.1899 1.94772e-06 17.5165C-0.000345805 18.2447 0.0458736 18.9723 0.138389 19.6948H11.8402ZM53.9726 16.5447C53.9909 16.866 54 17.1899 54 17.5165C54.0003 18.2447 53.9541 18.9723 53.8616 19.6948H42.1598V16.5447H53.9726Z" fill="white"/>
</svg>
