<svg width="16" height="16" viewBox="0 0 16 16" fill="none" xmlns="http://www.w3.org/2000/svg">
<path d="M8 0C6.41775 0 4.87103 0.469192 3.55544 1.34824C2.23985 2.22729 1.21447 3.47672 0.608967 4.93853C0.00346627 6.40034 -0.15496 8.00887 0.153721 9.56072C0.462403 11.1126 1.22433 12.538 2.34315 13.6569C3.46197 14.7757 4.88743 15.5376 6.43928 15.8463C7.99113 16.155 9.59966 15.9965 11.0615 15.391C12.5233 14.7855 13.7727 13.7602 14.6518 12.4446C15.5308 11.129 16 9.58225 16 8C16 6.94942 15.7931 5.90914 15.391 4.93853C14.989 3.96793 14.3997 3.08601 13.6569 2.34315C12.914 1.60028 12.0321 1.011 11.0615 0.608964C10.0909 0.206926 9.05058 0 8 0ZM5.2 3.6C5.51645 3.6 5.8258 3.69384 6.08891 3.86965C6.35203 4.04546 6.55711 4.29534 6.67821 4.58771C6.79931 4.88007 6.831 5.20177 6.76926 5.51214C6.70752 5.82251 6.55514 6.1076 6.33137 6.33137C6.10761 6.55513 5.82252 6.70752 5.51215 6.76925C5.20178 6.83099 4.88007 6.79931 4.58771 6.67821C4.29535 6.55711 4.04546 6.35203 3.86965 6.08891C3.69384 5.82579 3.6 5.51645 3.6 5.2C3.6 4.77565 3.76857 4.36869 4.06863 4.06863C4.36869 3.76857 4.77566 3.6 5.2 3.6ZM5.3656 11.7656C5.2918 11.842 5.20353 11.903 5.10593 11.9449C5.00832 11.9868 4.90335 12.0089 4.79712 12.0098C4.6909 12.0107 4.58556 11.9905 4.48724 11.9503C4.38892 11.91 4.2996 11.8506 4.22449 11.7755C4.14937 11.7004 4.08997 11.6111 4.04975 11.5128C4.00952 11.4144 3.98928 11.3091 3.9902 11.2029C3.99113 11.0967 4.01319 10.9917 4.05512 10.8941C4.09705 10.7965 4.15799 10.7082 4.2344 10.6344L10.6344 4.2344C10.7082 4.15799 10.7965 4.09704 10.8941 4.05512C10.9917 4.01319 11.0967 3.99112 11.2029 3.9902C11.3091 3.98928 11.4144 4.00952 11.5128 4.04974C11.6111 4.08997 11.7004 4.14937 11.7755 4.22448C11.8506 4.2996 11.91 4.38892 11.9503 4.48724C11.9905 4.58555 12.0107 4.6909 12.0098 4.79712C12.0089 4.90334 11.9868 5.00832 11.9449 5.10592C11.903 5.20353 11.842 5.2918 11.7656 5.3656L5.3656 11.7656ZM10.8 12.4C10.4836 12.4 10.1742 12.3062 9.91109 12.1303C9.64797 11.9545 9.44289 11.7047 9.32179 11.4123C9.20069 11.1199 9.16901 10.7982 9.23075 10.4879C9.29248 10.1775 9.44487 9.89239 9.66863 9.66863C9.8924 9.44486 10.1775 9.29248 10.4879 9.23074C10.7982 9.169 11.1199 9.20069 11.4123 9.32179C11.7047 9.44289 11.9545 9.64797 12.1304 9.91109C12.3062 10.1742 12.4 10.4835 12.4 10.8C12.4 11.2243 12.2314 11.6313 11.9314 11.9314C11.6313 12.2314 11.2243 12.4 10.8 12.4Z" fill="white"/>
</svg>
