<svg width="85" height="45" viewBox="0 0 85 45" fill="none" xmlns="http://www.w3.org/2000/svg">
<circle cx="22.2861" cy="22.2861" r="22.2861" fill="#F7931A"/>
<path d="M32.642 19.0323C33.0324 16.039 30.832 14.4762 27.8152 13.4198L28.7522 9.36995L26.3672 8.77568L25.4586 12.7375C24.8269 12.5834 24.188 12.4293 23.5563 12.2973L24.4649 8.33548L22.0515 7.74121L21.1145 11.791C20.6034 11.6663 20.0853 11.5709 19.5742 11.4462L16.2877 10.6318L15.6844 13.251C15.6844 13.251 17.466 13.6545 17.4021 13.6912C18.3675 13.9407 18.552 14.5936 18.5166 15.0925L17.4589 19.7073C17.5228 19.7366 17.608 19.7366 17.7003 19.8026C17.608 19.7733 17.5512 19.7733 17.4589 19.744L16.0109 26.2002C15.8902 26.5083 15.585 26.9485 14.9249 26.7945C14.9532 26.8238 13.1716 26.3543 13.1716 26.3543L12.043 29.1936L15.152 29.9419C15.727 30.096 16.3019 30.2207 16.8414 30.3821L15.9044 34.4686L18.2894 35.0629L19.2264 31.013C19.8936 31.1965 20.5254 31.3579 21.1287 31.5119L20.1917 35.5324L22.5767 36.1267L23.5137 32.0402C27.5881 32.7885 30.6332 32.4437 31.8683 28.6066C32.8621 25.5472 31.7761 23.8011 29.604 22.6493C31.194 22.2751 32.3439 21.2113 32.642 19.0323ZM27.2758 26.9779C26.5801 30.0373 21.5759 28.4452 19.9717 28.0417L21.2068 22.6126C22.8394 23.0234 27.9998 23.7718 27.2758 26.9779ZM27.9359 19.0323C27.3042 21.8056 23.1375 20.4703 21.7817 20.1255L22.9317 15.2026C24.259 15.5401 28.6031 16.1343 27.9359 19.0323Z" fill="white"/>
<circle cx="62.7138" cy="22.2861" r="22.2861" fill="#0052FF"/>
<path d="M62.7714 34.4069C69.4338 34.4069 74.8346 29.0153 74.8346 22.3645C74.8346 15.7138 69.4338 10.3223 62.7714 10.3223C56.4504 10.3223 51.265 15.1752 50.75 21.3523H66.695V23.3768H50.75C51.265 29.5538 56.4504 34.4069 62.7714 34.4069Z" fill="white"/>
</svg>
