<svg width="20" height="21" viewBox="0 0 20 21" fill="none" xmlns="http://www.w3.org/2000/svg">
<path d="M2.1875 1.96875H17.8125C18.2269 1.96875 18.6243 2.1416 18.9174 2.44928C19.2104 2.75695 19.375 3.17425 19.375 3.60938V5.06625C18.9474 4.65877 18.39 4.43403 17.8125 4.43625V3.60938H2.1875V4.43625C1.61002 4.43403 1.05265 4.65877 0.625 5.06625V3.60938C0.625 3.17425 0.789619 2.75695 1.08265 2.44928C1.37567 2.1416 1.7731 1.96875 2.1875 1.96875ZM2.1875 5.25H17.8125C18.2269 5.25 18.6243 5.42285 18.9174 5.73053C19.2104 6.0382 19.375 6.4555 19.375 6.89062V8.3475C18.9474 7.94002 18.39 7.71528 17.8125 7.7175V6.89062H2.1875V7.7175C1.61002 7.71528 1.05265 7.94002 0.625 8.3475V6.89062C0.625 6.4555 0.789619 6.0382 1.08265 5.73053C1.37567 5.42285 1.7731 5.25 2.1875 5.25ZM2.1875 8.53125H6.875C6.90435 9.37262 7.24935 10.1677 7.83476 10.743C8.42018 11.3184 9.1985 11.6273 10 11.6025C10.8015 11.6273 11.5798 11.3184 12.1652 10.743C12.7506 10.1677 13.0957 9.37262 13.125 8.53125H17.8125C18.2269 8.53125 18.6243 8.7041 18.9174 9.01178C19.2104 9.31945 19.375 9.73675 19.375 10.1719V17.3906C19.375 17.8257 19.2104 18.243 18.9174 18.5507C18.6243 18.8584 18.2269 19.0312 17.8125 19.0312H2.1875C1.7731 19.0312 1.37567 18.8584 1.08265 18.5507C0.789619 18.243 0.625 17.8257 0.625 17.3906V10.1719C0.625 9.73675 0.789619 9.31945 1.08265 9.01178C1.37567 8.7041 1.7731 8.53125 2.1875 8.53125ZM2.1875 17.3906H17.8125V10.1719H14.4C14.0442 11.0879 13.4345 11.8705 12.6499 12.4181C11.8653 12.9658 10.9421 13.2532 10 13.2431C9.05754 13.255 8.13355 12.9683 7.34863 12.4204C6.56371 11.8726 5.95432 11.0889 5.6 10.1719H2.1875V17.3906Z" fill="white"/>
</svg>
